<?xml version="1.0" encoding="utf-8"?>
<svg xmlns="http://www.w3.org/2000/svg" data-name="图层 1" id="__1" viewBox="0 0 58.34 20.19">
  <defs>
    <style>
      .cls-1 {
        fill: #010101;
      }
    </style>
  </defs>
  <path class="cls-1" d="m11.19,3.22c.71-.85,1.18-2.04,1.05-3.22-1.02.04-2.25.68-2.98,1.53-.65.76-1.23,1.97-1.07,3.12,1.13.09,2.29-.58,2.99-1.43m5.25,11.58c-.02.07-.42,1.45-1.4,2.87-.84,1.23-1.71,2.46-3.09,2.48-1.35.03-1.79-.8-3.33-.8s-2.03.78-3.31.83c-1.33.05-2.34-1.33-3.19-2.56C.39,15.12-.93,10.55.84,7.46c.88-1.54,2.46-2.51,4.18-2.53,1.31-.02,2.53.88,3.33.88s2.29-1.08,3.86-.92c.66.03,2.5.26,3.69,2-.1.06-2.21,1.29-2.18,3.84.03,3.05,2.68,4.07,2.71,4.08"/>
  <path class="cls-1" d="m27.09,8.75l-.42-1.31c-.04-.13-.13-.45-.25-.95h-.02c-.05.21-.13.53-.24.95l-.42,1.31h1.34Zm1.47,2.09h-.85l-.47-1.47h-1.63l-.45,1.47h-.83l1.61-5.01h1l1.62,5.01Z"/>
  <path class="cls-1" d="m32.02,10.84h-.71l-.04-.55h-.01c-.25.42-.64.63-1.14.63-.36,0-.64-.11-.85-.33-.25-.27-.38-.68-.38-1.23v-2.12h.8v1.99c0,.69.24,1.04.72,1.04.36,0,.61-.17.75-.52.03-.09.05-.19.05-.3v-2.21h.8v2.57c0,.34.01.69.03,1.04"/>
  <path class="cls-1" d="m34.83,7.83h-.88v1.76c0,.45.15.67.47.67.14,0,.26-.01.35-.04l.02.61c-.16.06-.37.09-.62.09-.32,0-.56-.1-.74-.29-.18-.19-.27-.52-.27-.97v-1.82h-.53v-.6h.53v-.66l.79-.24v.9h.88v.6Z"/>
  <path class="cls-1" d="m38.71,10.84h-.8v-2.05c0-.65-.24-.97-.73-.97-.37,0-.63.19-.77.56-.02.08-.04.18-.04.29v2.17h-.8v-5.27h.8v2.17h.02c.25-.39.61-.58,1.09-.58.33,0,.61.11.83.33.27.27.41.68.41,1.21v2.15Z"/>
  <path class="cls-1" d="m42.09,9.03c0-.33-.07-.61-.22-.85-.17-.29-.41-.43-.72-.43s-.57.14-.73.43c-.14.24-.22.53-.22.87s.07.61.22.85c.17.29.42.43.73.43s.55-.15.72-.44c.15-.24.22-.53.22-.86m.83-.02c0,.55-.16,1.01-.48,1.37-.33.37-.77.55-1.32.55s-.95-.18-1.27-.53c-.31-.35-.47-.79-.47-1.33s.16-1.02.49-1.37c.32-.36.76-.54,1.31-.54s.96.18,1.28.53c.31.34.46.78.46,1.32"/>
  <path class="cls-1" d="m45.51,7.93c-.08-.01-.16-.02-.25-.02-.28,0-.5.11-.66.32-.14.19-.2.42-.2.71v1.89h-.8v-2.48c0-.42,0-.79-.02-1.14h.7l.03.69h.02c.08-.24.22-.43.4-.57.18-.13.37-.19.58-.19.07,0,.14,0,.2.02v.76Z"/>
  <path class="cls-1" d="m46.99,10.84h-.8v-3.61h.8v3.61Zm.09-4.69c0,.14-.05.26-.14.35-.09.09-.22.13-.36.13-.13,0-.25-.04-.34-.14-.09-.09-.14-.21-.14-.35s.05-.25.14-.34c.09-.09.21-.13.35-.13s.25.04.35.13c.09.09.14.2.14.34"/>
  <path class="cls-1" d="m50.66,10.84h-2.94v-.47l1.44-1.9c.09-.12.25-.32.49-.59h-1.79v-.65h2.76v.5l-1.41,1.87c-.16.2-.32.4-.49.59h1.94v.65Z"/>
  <path class="cls-1" d="m53.54,8.65c0-.24-.05-.44-.16-.62-.14-.22-.35-.33-.64-.33-.26,0-.48.11-.64.33-.13.17-.21.38-.24.62h1.68Zm.77.21c0,.14-.01.26-.03.36h-2.42c.01.36.13.63.35.82.2.17.47.25.79.25.36,0,.68-.06.97-.17l.13.56c-.34.15-.75.22-1.21.22-.56,0-1-.16-1.32-.5-.32-.33-.48-.77-.48-1.33s.15-1,.45-1.36c.31-.39.73-.58,1.26-.58s.91.19,1.18.58c.21.31.32.68.32,1.14"/>
  <path class="cls-1" d="m57.51,9.32v-.6c0-.1,0-.19-.02-.25-.04-.19-.14-.35-.29-.48-.15-.13-.33-.2-.54-.2-.3,0-.53.12-.7.36-.17.24-.26.54-.26.91s.08.64.25.87c.17.24.41.35.7.35.26,0,.47-.1.63-.29.15-.18.23-.4.23-.66m.83,1.52h-.71l-.04-.58h-.02c-.23.44-.61.66-1.16.66-.44,0-.8-.17-1.08-.51-.29-.34-.43-.78-.43-1.33,0-.58.16-1.06.47-1.42.3-.34.68-.5,1.12-.5.49,0,.83.16,1.03.49v-2.07h.8v4.29c0,.35.01.68.04.97"/>
  <path class="cls-1" d="m27.09,15.8c0-.57-.34-.86-1.03-.87-.26,0-.45.02-.58.05v1.69h.56c.32,0,.57-.08.76-.24.19-.16.28-.37.28-.64m.98,3.58h-.83c-.08-.15-.19-.54-.33-1.19-.07-.34-.18-.58-.31-.71-.14-.14-.35-.2-.61-.2h-.5v2.11h-.8v-4.95c.37-.07.8-.1,1.3-.1.68,0,1.18.13,1.49.4.28.24.42.57.42.99,0,.31-.09.58-.27.81-.16.21-.38.36-.64.45h0c.34.14.58.48.71,1.01.1.42.17.7.21.86.07.26.13.44.17.52"/>
  <path class="cls-1" d="m30.9,17.2c0-.24-.05-.44-.16-.62-.14-.22-.35-.33-.64-.33-.26,0-.48.11-.64.33-.13.17-.21.38-.24.62h1.68Zm.77.21c0,.14,0,.27-.03.36h-2.41c.01.36.13.63.35.82.2.17.47.25.79.25.36,0,.68-.06.98-.17l.13.56c-.34.15-.75.22-1.21.22-.56,0-1-.16-1.32-.5-.32-.33-.48-.77-.48-1.33s.15-1,.45-1.36c.31-.39.73-.58,1.26-.58s.92.19,1.18.58c.21.31.32.68.32,1.14"/>
  <path class="cls-1" d="m34.58,18.34c0,.34-.12.61-.37.81-.25.2-.59.3-1.02.3-.41,0-.76-.08-1.05-.24l.17-.59c.28.16.57.25.89.25.41,0,.62-.15.62-.45,0-.13-.04-.24-.13-.33-.09-.09-.25-.17-.48-.26-.64-.24-.97-.58-.97-1.04,0-.31.12-.57.36-.78.24-.21.55-.31.94-.31.36,0,.66.07.91.21l-.17.57c-.23-.14-.48-.21-.74-.21-.17,0-.3.04-.39.12-.09.08-.14.18-.14.3s.05.23.15.3c.08.07.25.16.49.24.62.24.94.6.94,1.09"/>
  <path class="cls-1" d="m37.56,17.2c0-.24-.05-.44-.16-.62-.14-.22-.35-.33-.64-.33-.26,0-.48.11-.64.33-.13.17-.21.38-.24.62h1.68Zm.77.21c0,.14,0,.27-.03.36h-2.42c0,.36.13.63.35.82.2.17.47.25.79.25.36,0,.68-.06.98-.17l.13.56c-.34.15-.75.22-1.21.22-.56,0-1-.16-1.32-.5-.32-.33-.48-.77-.48-1.33s.15-1,.45-1.36c.31-.39.73-.58,1.26-.58s.92.19,1.18.58c.21.31.32.68.32,1.14"/>
  <rect class="cls-1" height="5.27" width=".8" x="39.04" y="14.12"/>
  <rect class="cls-1" height="5.27" width=".8" x="40.79" y="14.12"/>
  <path class="cls-1" d="m44.71,17.2c0-.24-.05-.44-.16-.62-.14-.22-.35-.33-.64-.33-.26,0-.48.11-.64.33-.13.17-.21.38-.24.62h1.68Zm.77.21c0,.14,0,.27-.03.36h-2.41c0,.36.13.63.35.82.2.17.46.25.79.25.36,0,.68-.06.98-.17l.13.56c-.34.15-.75.22-1.21.22-.56,0-1-.16-1.32-.5-.32-.33-.48-.77-.48-1.33s.15-1,.45-1.36c.31-.39.73-.58,1.26-.58s.91.19,1.18.58c.21.31.32.68.32,1.14"/>
  <path class="cls-1" d="m48.1,16.48c-.08-.01-.16-.02-.25-.02-.28,0-.5.11-.66.32-.13.19-.2.42-.2.71v1.89h-.8v-2.48c0-.42,0-.79-.02-1.14h.7l.03.69h.02c.09-.24.22-.43.4-.57.18-.13.37-.19.58-.19.07,0,.14,0,.2.01v.76Z"/>
</svg>